HIERARCHY
ROOT Hip
{
  OFFSET 0.000000 0.000000 0.000000
  CHANNELS 6 Xposition Yposition Zposition Zrotation Xrotation Yrotation
  JOINT RHip
  {
    OFFSET -0.079126 -0.063195 0.075417
    CHANNELS 3 Zrotation Xrotation Yrotation
    JOINT RKnee
    {
      OFFSET -0.140743 0.329166 -0.116547
      CHANNELS 3 Zrotation Xrotation Yrotation
      JOINT RFoot
      {
        OFFSET -0.147212 -0.130874 0.034653
        CHANNELS 3 Zrotation Xrotation Yrotation
        End Site
        {
          OFFSET 0.000000 0.050000 0.000000
        }
      }
    }
  }
  JOINT LHip
  {
    OFFSET 0.079093 0.063085 -0.075443
    CHANNELS 3 Zrotation Xrotation Yrotation
    JOINT LKnee
    {
      OFFSET -0.280739 -0.246703 0.150240
      CHANNELS 3 Zrotation Xrotation Yrotation
      JOINT LFoot
      {
        OFFSET 0.063967 0.000004 0.313053
        CHANNELS 3 Zrotation Xrotation Yrotation
        End Site
        {
          OFFSET 0.000000 0.050000 0.000000
        }
      }
    }
  }
  JOINT Spine
  {
    OFFSET -0.038690 -0.019111 -0.173812
    CHANNELS 3 Zrotation Xrotation Yrotation
    JOINT Thorax
    {
      OFFSET -0.130457 0.008731 -0.009912
      CHANNELS 3 Zrotation Xrotation Yrotation
      JOINT Nose
      {
        OFFSET -0.189120 -0.199106 -0.057156
        CHANNELS 3 Zrotation Xrotation Yrotation
        JOINT Head
        {
          OFFSET 0.427597 0.276167 0.196616
          CHANNELS 3 Zrotation Xrotation Yrotation
          End Site
          {
            OFFSET 0.000000 0.050000 0.000000
          }
        }
      }
      JOINT LShoulder
      {
        OFFSET -0.015876 -0.268168 -0.093073
        CHANNELS 3 Zrotation Xrotation Yrotation
        JOINT LElbow
        {
          OFFSET 0.161817 -0.729313 -0.064777
          CHANNELS 3 Zrotation Xrotation Yrotation
          JOINT LWrist
          {
            OFFSET 0.398089 0.211657 0.001611
            CHANNELS 3 Zrotation Xrotation Yrotation
            End Site
            {
              OFFSET 0.000000 0.050000 0.000000
            }
          }
        }
      }
      JOINT RShoulder
      {
        OFFSET 0.069406 0.171779 0.138442
        CHANNELS 3 Zrotation Xrotation Yrotation
        JOINT RElbow
        {
          OFFSET -0.125142 -0.052007 -0.000610
          CHANNELS 3 Zrotation Xrotation Yrotation
          JOINT RWrist
          {
            OFFSET -0.289304 -0.841579 -0.050810
            CHANNELS 3 Zrotation Xrotation Yrotation
            End Site
            {
              OFFSET 0.000000 0.050000 0.000000
            }
          }
        }
      }
    }
  }
}
MOTION
Frames: 10
Frame Time: 0.033333
0.000001 1.234740 0.000003 0.000000 0.000000 0.000000 1.400505 -159.710648 7.815286 -43.665009 71.800743 32.345526 -15.957051 17.236213 2.433823 -1.372069 20.160784 0.243930 -71.511511 32.993558 24.075397 117.314898 4.482826 -7.354277 4.724162 -102.401784 5.874041 -7.514732 -85.898097 -6.996455 -135.030897 -16.377208 -38.341898 35.767456 -3.622549 1.169264 -5.910408 164.139297 40.668476 -32.381679 -23.972144 -7.054815 48.390189 119.557168 -75.288645 -9.593822 18.191295 1.539440 150.566255 -2.232321 8.484441 -20.678899 -15.786963 -2.897951
0.000002 1.234745 -0.000085 0.000000 0.000000 0.000000 159.268400 -3.929293 21.242927 -36.218823 70.772189 26.154660 -38.299726 4.678884 1.625565 -19.253105 3.861180 0.655151 -80.280856 44.175694 37.783345 117.159184 8.468956 -13.821155 9.419160 -95.371405 10.341531 2.220929 -98.737779 2.588241 -115.882617 -30.222918 -46.647870 26.348906 3.232135 -0.756760 -132.894950 34.803326 71.432058 -66.578594 -17.012866 -11.217650 4.693472 163.968144 -32.450967 -13.338205 30.530797 3.655552 144.684090 -18.535966 54.280886 -21.371528 -11.076084 -2.096297
0.000002 1.234744 -0.000069 0.000000 0.000000 0.000000 150.570614 -1.849182 7.033070 -78.841885 24.887802 20.562589 -46.467534 -16.307644 -7.039623 -29.179872 1.940954 0.505262 -60.631643 61.654189 38.471835 131.297602 3.278827 -7.236870 1.947208 -111.758145 2.873427 -46.541841 -78.808366 -38.917977 -97.012183 -53.596051 -59.455004 7.053959 20.591815 -1.282968 -117.354756 -23.047456 -37.044953 -62.509433 -35.124127 -21.746615 -64.387966 89.927002 64.322155 53.600893 39.316799 -20.458425 111.083324 -46.145624 63.661091 -32.929287 -6.152365 -1.819881
0.000003 1.234747 -0.000099 0.000000 0.000000 0.000000 138.696248 8.623277 -22.623626 13.113992 -80.096689 11.036932 -78.020974 -7.661678 -6.209806 -37.593408 -7.870454 -2.682546 -47.268375 56.580764 26.506495 145.947647 6.753857 -21.813057 -1.742715 -109.864350 -2.482398 -96.165496 -4.157180 -4.629959 -109.437545 -47.727664 -64.030159 -15.066604 29.379311 3.971070 -102.059122 -10.912973 -13.469184 -52.943572 -59.212513 -31.598413 -147.608525 2.669197 9.172014 109.727654 6.720502 -9.538359 35.951787 -118.459103 57.173390 -37.844860 -7.153835 -2.455249
0.000004 1.234747 -0.000134 0.000000 0.000000 0.000000 135.677788 11.586715 -27.975547 -17.366630 -88.928987 -17.049766 -79.777732 -5.316142 -4.444190 -38.197701 -10.139210 -3.518873 -32.170076 32.805256 9.703395 145.483740 17.611896 -53.006859 -34.199337 -100.989892 -40.923358 -74.075430 4.033612 3.044251 -125.817238 -34.840862 -63.049337 -5.744853 23.019574 1.170766 -106.468409 -17.814401 -23.693107 2.615880 -72.867391 1.931121 -146.907490 4.285669 14.356543 112.121761 -7.265392 10.778701 -19.315104 -130.121260 -40.199468 -39.912824 -4.809797 -1.747371
0.000004 1.234750 -0.000109 0.000000 0.000000 0.000000 140.078451 7.632670 -20.814499 -47.190477 -112.788415 -66.632090 -73.652235 -1.608029 -1.204138 -36.905385 -7.046051 -2.353745 -27.233227 13.455553 3.273543 85.610441 79.752202 -75.461830 -66.006219 -68.397635 -47.630423 -61.456020 9.953286 5.926048 -100.307811 -61.279646 -70.732963 -1.315820 24.653981 0.287556 -107.932429 -13.661346 -18.701587 17.192657 -63.092850 10.604385 -158.838842 -4.672287 -24.640001 90.272322 -11.123673 11.176335 -92.510059 -28.349381 -29.564854 -33.776520 -91.490453 -34.614235
0.000004 1.234763 -0.000094 0.000000 0.000000 0.000000 161.454066 7.739195 -45.006389 -33.306258 -133.672352 -69.916700 -53.608792 7.716554 3.903048 -12.993115 -5.386207 -0.613799 -29.177133 23.306175 6.144987 11.866029 152.487484 -46.001936 -35.355139 -101.496775 -42.617380 -76.310492 28.452257 22.529874 -69.309006 -91.054439 -70.298646 2.285338 28.510983 -0.580707 -109.560579 -19.097981 -26.806700 6.584201 -56.291761 3.525183 -161.899837 2.271723 14.191267 72.830348 -20.042557 14.853718 -76.003411 -16.147725 -12.649307 132.027972 20.335979 -43.908260
0.000004 1.234775 -0.000120 0.000000 0.000000 0.000000 149.830034 15.704621 -54.194215 9.405392 -152.055659 36.589861 -49.189976 5.595648 2.562906 -17.112493 -9.019983 -1.359845 -47.555936 23.229162 10.348916 19.751302 143.813423 -56.101002 -19.269409 -125.597399 -36.556744 -131.314488 8.318585 18.263173 -33.482549 -117.904244 -53.099714 0.677483 28.093943 -0.169507 -95.074053 -22.263723 -24.269436 17.571488 -56.252560 9.445526 -156.445899 7.106499 33.170263 69.162195 -11.497372 7.939882 -84.241525 -9.508955 -8.601858 120.976226 8.820365 -15.517691
0.000003 1.234778 -0.000075 0.000000 0.000000 0.000000 110.456068 55.865087 -74.734683 53.073055 -104.295147 65.447908 -43.759157 2.004727 0.805134 -14.293417 -12.529402 -1.577184 -71.258162 59.677263 44.694985 7.918739 159.687331 -42.249653 10.864194 -135.847944 26.391248 -95.435765 -54.412754 -58.959894 -34.769626 -86.076521 -32.592789 -30.214268 17.577982 4.780050 -95.324566 -26.326300 -28.791737 24.312077 -36.746775 8.184449 -151.683287 6.274828 24.517678 94.565635 -5.417368 5.866458 -85.087549 -2.091984 -1.919927 88.466903 -0.224797 0.218861
0.000002 1.234776 -0.000011 0.000000 0.000000 0.000000 15.353762 145.035992 -46.340108 143.497375 -13.948993 40.705393 -51.208099 -0.228654 -0.109573 -10.543360 -23.311760 -2.180854 2.663156 166.525256 -22.263110 -1.948888 161.036806 11.630145 10.716700 -134.760758 25.372697 -6.125557 -156.737753 -29.142696 14.755786 -37.449871 5.026319 -56.462149 -51.073591 -28.773359 -72.321602 -34.956189 -25.919195 46.805156 -29.344585 12.930040 -137.288800 5.850039 14.890291 108.390978 12.109929 -16.730913 -105.154144 -2.598852 -3.395927 62.105421 -9.734879 5.870501
